<?xml version="1.0" encoding="UTF-8"?>
<svg id="Layer_2" data-name="Layer 2" xmlns="http://www.w3.org/2000/svg" viewBox="0 0 882.02 829.25">
  <g id="Layer_1-2" data-name="Layer 1">
    <g>
      <path d="M882.02,414.63c0-128.56-104.59-233.15-233.09-233.15-11.51,0-22.78.86-33.81,2.46-15.6,2.25-30.64,6.08-45.09,11.27-.21,10.15-1.16,21.45-3.8,32.45-3.32,14.03-10.23,26.37-18.51,38.53-3.56,5.4-7.5,10.71-11.45,16.13-14.57,19.97-29.66,40.64-34.68,67.57-9.88,53.54,17.03,93.56,43.04,132.18,3.17,4.72,6.38,9.46,9.52,14.27,13.02-6.32,26.1-13.64,39.22-22.01-2.46-3.65-4.98-7.36-7.57-11.15-23.76-34.65-48.35-70.48-39.39-107.68,4.42-18.42,16.4-34.41,29.13-51.41,9.58-12.79,19.49-26.01,25.81-40.34,3.32-7.62,6.05-15.72,8.16-24.47,12.7-2.85,25.87-4.36,39.42-4.36,99.05,0,179.64,80.62,179.64,179.7s-80.59,179.67-179.64,179.67c-4,0-8.04-.15-11.98-.42-3.44-29.49-10.32-58.73-23.85-86.38-13.44,8.48-26.58,15.81-39.42,22.1,2.73,5.58,5.19,11.27,7.27,17.03,4.45,12.34,7.45,25.06,9.49,37.91,3.11,19.1,4.06,38.44,4.51,56.86,14.59,3.5,29.75,5.58,45.23,6.17,2.91.12,5.82.18,8.75.18,72.2,0,136.83-33.01,179.64-84.75v266.25h53.45v-407.68h-.18c.09-2.31.18-4.63.18-6.94"/>
      <path d="M380.42,349.96c-4.87-26.9-19.99-47.64-34.65-67.63-4.03-5.43-7.95-10.77-11.54-16.17-8.31-12.22-15.16-24.56-18.45-38.5-2.23-9.52-3.47-20.08-3.83-32.45-14.45-5.22-29.49-9.02-45.09-11.27-11.03-1.6-22.31-2.46-33.76-2.46-72.23,0-136.86,33.01-179.67,84.78V0H0v407.68h.18c-.09,2.31-.18,4.6-.18,6.94,0,128.53,104.59,233.12,233.12,233.12,2.94,0,5.88-.06,8.81-.18,15.51-.6,30.64-2.67,45.26-6.17l.54-22.57c.92-10.86,2.05-22.49,3.91-34.35,2.19-13.79,5.43-27.88,10.56-41.23,1.39-3.65,2.94-7.24,4.6-10.8-16.67-8.78-29.43-17.71-37.85-24.23-3.59,6.85-6.76,13.76-9.34,20.76-7.8,21.24-12.1,43.07-14.6,64.9-3.94.27-7.89.42-11.89.42-99.07,0-179.67-80.59-179.67-179.67s80.59-179.69,179.67-179.69c13.5,0,26.67,1.51,39.33,4.36,1.42,5.84,3.12,11.42,5.1,16.76,6.56,17.65,17.89,33.04,28.83,47.97,17.92,24.38,34.82,47.4,30.37,78.22-3.94,27.67-21.59,53.87-40.25,81.63-2.49,3.68-4.98,7.39-7.41,11.09,6.49,5.31,19.1,14.74,36.9,24,3.77-5.88,7.68-11.66,11.57-17.38,25.9-38.12,52.62-77.6,42.86-131.61"/>
    </g>
  </g>
</svg>